<svg width="128" height="41" viewBox="0 0 128 41" fill="none" xmlns="http://www.w3.org/2000/svg">
<path d="M16.3933 16.8831C16.3525 16.8899 16.3321 16.9239 16.3389 16.9647C16.3457 17.0055 16.3797 17.0259 16.4205 17.0191C16.4613 17.0123 16.4817 16.9715 16.4749 16.9375C16.4681 16.8967 16.4273 16.8763 16.3933 16.8831ZM16.3933 16.8831C16.3525 16.8899 16.3321 16.9239 16.3389 16.9647C16.3457 17.0055 16.3797 17.0259 16.4205 17.0191C16.4613 17.0123 16.4817 16.9715 16.4749 16.9375C16.4681 16.8967 16.4273 16.8763 16.3933 16.8831ZM16.3933 16.8831C16.3525 16.8899 16.3321 16.9239 16.3389 16.9647C16.3457 17.0055 16.3797 17.0259 16.4205 17.0191C16.4613 17.0123 16.4817 16.9715 16.4749 16.9375C16.4681 16.8967 16.4273 16.8763 16.3933 16.8831ZM16.3933 16.8831C16.3525 16.8899 16.3321 16.9239 16.3389 16.9647C16.3457 17.0055 16.3797 17.0259 16.4205 17.0191C16.4613 17.0123 16.4817 16.9715 16.4749 16.9375C16.4681 16.8967 16.4273 16.8763 16.3933 16.8831ZM16.3933 16.8831C16.3525 16.8899 16.3321 16.9239 16.3389 16.9647C16.3457 17.0055 16.3797 17.0259 16.4205 17.0191C16.4613 17.0123 16.4817 16.9715 16.4749 16.9375C16.4681 16.8967 16.4273 16.8763 16.3933 16.8831Z" fill="#002E75"/>
<path d="M27.2948 1.30924C16.8829 -2.62837 5.24685 2.61498 1.30924 13.0269C-2.62837 23.4388 2.61498 35.0748 13.0269 39.0124C23.4388 42.95 35.0748 37.7067 39.0124 27.2948C42.95 16.8829 37.7067 5.25366 27.2948 1.30924ZM20.7797 28.3217C21.0993 28.4849 21.3849 28.6957 21.6298 28.9405C21.623 28.9337 21.4734 28.9881 21.4598 28.9949C21.0381 29.1242 20.6301 29.3418 20.29 29.6274C20.1608 29.7362 20.0588 29.8586 19.95 29.9878C19.2903 29.4506 18.7735 28.7909 18.4062 28.0564C19.1747 27.8524 20.018 27.9204 20.7797 28.3217ZM16.1892 16.7809C16.4408 16.7333 16.6857 16.8965 16.7333 17.1481C16.7809 17.3997 16.6176 17.6446 16.366 17.6922C16.1144 17.7398 15.8696 17.5765 15.822 17.3249C15.7812 17.0733 15.9444 16.8353 16.1892 16.7809ZM14.353 17.7806C14.8631 17.7806 15.2779 18.1954 15.2779 18.7055C15.2779 19.2155 14.8631 19.6304 14.353 19.6304C13.843 19.6304 13.4281 19.2155 13.4281 18.7055C13.4281 18.1954 13.8362 17.7806 14.353 17.7806ZM16.0736 36.8498C15.89 36.8022 15.7132 36.7546 15.5363 36.707C14.7815 36.4893 14.0266 36.2241 13.2853 35.8977C11.5919 35.1564 10.0822 34.1771 8.76962 33.0142C8.32758 32.6265 7.91273 32.2117 7.51149 31.7832C4.7368 28.7637 3.12503 24.8465 2.96182 20.7593C5.32166 20.0792 7.91953 20.1608 10.361 21.1605C10.4494 21.1945 10.5378 21.2353 10.6262 21.2693C13.1017 22.3574 14.9855 24.2208 16.128 26.4515C16.094 26.5331 16.06 26.6147 16.026 26.6963C15.7404 27.3492 15.4003 27.9544 15.0127 28.5257C14.4414 29.369 13.7613 30.1171 13.0065 30.7563C14.0062 30.2939 14.9379 29.6886 15.7676 28.9473C16.1144 28.6345 16.4476 28.3013 16.7605 27.9408C16.8149 27.8796 16.8693 27.8184 16.9237 27.7572C17.0597 27.594 17.1889 27.4308 17.3113 27.2676C17.869 28.2673 18.5763 29.1854 19.4195 29.981C20.3308 30.8447 21.4121 31.5724 22.6295 32.1029C26.3563 33.7418 30.4911 33.2046 33.6058 31.042C29.4166 36.1425 22.5751 38.4683 16.0736 36.8498ZM36.3261 26.2815C35.7752 27.7436 35.0408 29.0834 34.1703 30.2939C34.9184 28.6957 34.6871 26.7371 33.429 25.3498C33.1434 25.0369 32.8237 24.7717 32.4837 24.5541C33.395 23.7516 34.4763 23.2755 35.5916 23.1123C35.9113 22.1806 36.4621 21.3169 37.2442 20.6165C37.3122 20.5553 37.3734 20.5009 37.4414 20.4464C37.4142 22.3847 37.0538 24.3569 36.3261 26.2815Z" fill="#002E75"/>
<path d="M14.8424 18.1956C14.8424 18.2704 14.7812 18.3384 14.6996 18.3384C14.6248 18.3384 14.5636 18.2772 14.5636 18.1956C14.5636 18.1208 14.6248 18.0596 14.6996 18.0596C14.7812 18.0528 14.8424 18.114 14.8424 18.1956Z" fill="#002E75"/>
<path d="M16.4746 16.9375C16.4814 16.9783 16.4542 17.0123 16.4202 17.0191C16.3794 17.0259 16.3454 16.9987 16.3386 16.9647C16.3318 16.9239 16.359 16.8899 16.393 16.8831C16.427 16.8763 16.4678 16.8967 16.4746 16.9375Z" fill="#002E75"/>
<path d="M16.4746 16.9375C16.4814 16.9783 16.4542 17.0123 16.4202 17.0191C16.3794 17.0259 16.3454 16.9987 16.3386 16.9647C16.3318 16.9239 16.359 16.8899 16.393 16.8831C16.427 16.8763 16.4678 16.8967 16.4746 16.9375Z" fill="#002E75"/>
<path d="M59.8091 32.6676C56.1095 32.6676 53.1104 31.5046 50.7982 29.172C48.5131 26.887 47.3706 23.9694 47.3706 20.4127C47.3706 16.6655 48.5743 13.6052 50.975 11.2249C53.3552 8.84467 56.4156 7.65454 60.1627 7.65454C63.9779 7.65454 67.0383 8.81746 69.3505 11.1501C71.6083 13.4351 72.7441 16.3663 72.7441 19.9434C72.7441 23.7858 71.5199 26.8665 69.0717 29.1992C66.6914 31.5046 63.6175 32.6608 59.8499 32.6608H59.8091V32.6676ZM60.0539 28.7844C62.339 28.7844 64.1752 27.9615 65.5625 26.3089C66.9023 24.7107 67.5755 22.6365 67.5755 20.093C67.5755 17.7128 66.9295 15.727 65.6305 14.122C64.2432 12.4014 62.3934 11.5445 60.0811 11.5445C57.7281 11.5445 55.8647 12.4014 54.4978 14.122C53.1784 15.7474 52.5187 17.808 52.5187 20.3039C52.5187 22.7045 53.192 24.7107 54.5318 26.3089C55.9191 27.9547 57.7485 28.7844 60.0063 28.7844H60.0539Z" fill="#002E75"/>
<path d="M90.4738 31.6067C88.8961 32.3139 86.9851 32.6676 84.7476 32.6676C81.8029 32.6676 79.4499 31.8311 77.6817 30.1581C75.9135 28.5124 75.0294 26.3293 75.0294 23.6226C75.0294 20.916 75.9475 18.6989 77.7837 16.9783C79.6947 15.1626 82.2586 14.2581 85.4821 14.2581C87.2979 14.2581 88.9573 14.5777 90.4602 15.2102L89.5421 18.9165C88.4608 18.3521 87.1619 18.0665 85.6589 18.0665C83.9384 18.0665 82.5646 18.5765 81.5241 19.583C80.538 20.5487 80.0415 21.7864 80.0415 23.2894V23.3982C80.0415 25.044 80.5924 26.3633 81.7009 27.3562C82.7346 28.2743 84.054 28.7368 85.6589 28.7368C86.9987 28.7368 88.3656 28.4511 89.7598 27.8867L90.4738 31.6067Z" fill="#002E75"/>
<path d="M96.8325 24.8944C96.9005 26.0981 97.4786 27.0842 98.5667 27.8595C99.6004 28.5668 100.899 28.9204 102.45 28.9204C104.381 28.9204 106.197 28.6144 107.89 28.0023L108.666 31.4299C106.571 32.2527 104.3 32.6676 101.845 32.6676C98.8523 32.6676 96.4857 31.8447 94.7447 30.1921C93.0241 28.594 92.1672 26.4245 92.1672 23.6906C92.1672 21.2152 92.9221 19.0866 94.425 17.298C96.166 15.2714 98.4987 14.2581 101.423 14.2581C104.272 14.2581 106.442 15.2714 107.924 17.298C109.081 18.8757 109.659 20.7595 109.659 22.9494C109.659 23.7519 109.591 24.3979 109.448 24.8944H96.8325ZM104.993 21.3988V21.29C104.993 20.5827 104.769 19.8754 104.32 19.1682C103.64 18.1549 102.579 17.6516 101.137 17.6516C99.8452 17.6516 98.7911 18.1141 97.9954 19.0322C97.3562 19.7394 96.9821 20.5283 96.8665 21.3988H104.993Z" fill="#002E75"/>
<path d="M123.042 30.3689C121.771 31.8991 119.989 32.6676 117.711 32.6676C115.847 32.6676 114.365 32.1031 113.256 30.9742C112.243 29.9881 111.74 28.7844 111.74 27.3698C111.74 25.1596 112.719 23.473 114.671 22.3169C116.554 21.188 119.193 20.6235 122.587 20.6235H122.797V20.5895C122.797 18.7057 121.621 17.7604 119.268 17.7604H119.2C117.289 17.7604 115.548 18.2705 113.97 19.277L112.984 15.9922C114.868 14.8361 117.173 14.2581 119.907 14.2581C125.089 14.2581 127.68 16.8015 127.68 21.8885V27.8595C127.68 29.5529 127.789 31.015 128 32.2391C127.225 32.5248 126.538 32.6608 125.953 32.6608C124.409 32.6676 123.444 31.9059 123.042 30.3689ZM122.906 23.9083H122.376C118.561 23.9083 116.65 24.8944 116.65 26.8734C116.65 28.3559 117.486 29.0972 119.159 29.0972C120.995 29.0972 122.206 28.2947 122.797 26.6966C122.865 26.5061 122.906 26.2137 122.906 25.8125V23.9083Z" fill="#002E75"/>
</svg>
